<?xml version="1.0" encoding="UTF-8"?>
<svg version="1.1" xmlns="http://www.w3.org/2000/svg" width="198" height="205">
<path d="M0 0 C4.82266765 2.42395861 7.34540272 5.46759427 9.25 10.5 C9.81334073 13.46996547 10.20296469 16.43483946 10.58203125 19.43359375 C11.31588435 22.80245153 12.54097729 24.97219949 14.375 27.875 C17.78858131 33.50946554 17.65599544 38.17139368 17.16796875 44.62890625 C17.19503906 45.57636719 17.22210938 46.52382813 17.25 47.5 C20.1550193 49.68832556 20.1550193 49.68832556 23.6875 50.3125 C27.92186834 51.72395611 29.19188169 52.54841285 31.25 56.5 C32.03562932 61.35146352 31.85169855 65.22139058 29.75 69.6875 C22.57595031 77.75830591 16.07359047 82.14705119 5.25 83.5 C5.58 85.15 5.91 86.8 6.25 88.5 C7.20519531 88.53738281 8.16039063 88.57476562 9.14453125 88.61328125 C23.32608798 89.33437736 37.13354289 91.67178714 47.4296875 102.30078125 C50.98121282 106.59157257 53.49723454 111.48520616 56.125 116.375 C56.72707275 117.4774707 57.32914551 118.57994141 57.94946289 119.71582031 C59.15761925 121.93300588 60.36059894 124.15302093 61.55810547 126.37597656 C63.07680247 129.18019689 64.6255579 131.96412195 66.19140625 134.7421875 C67.02425914 136.24433641 67.85635367 137.74690617 68.6875 139.25 C69.07083496 139.92144043 69.45416992 140.59288086 69.84912109 141.28466797 C70.87109375 143.171875 70.87109375 143.171875 72.25 146.5 C72.02739502 147.20962891 71.80479004 147.91925781 71.57543945 148.65039062 C71.054827 153.20897173 73.32908651 156.45628941 75.421875 160.421875 C75.86009583 161.281297 76.29831665 162.14071899 76.74981689 163.02618408 C78.15343326 165.77442145 79.57545379 168.5125612 81 171.25 C82.40757753 173.97440589 83.81095603 176.70080673 85.20733643 179.43096924 C86.07615183 181.12762752 86.95169645 182.82086322 87.83514404 184.50994873 C88.23856018 185.29396057 88.64197632 186.07797241 89.05761719 186.88574219 C89.40926941 187.56127136 89.76092163 188.23680054 90.12322998 188.93280029 C91.76852452 192.68139103 92.95543727 196.61631181 94.25 200.5 C85.34 200.5 76.43 200.5 67.25 200.5 C61.55153269 189.30658206 56.26159544 178.01600653 51.25 166.5 C48.8027864 166.3509288 48.8027864 166.3509288 45.25 168.5 C43.6 165.86 41.95 163.22 40.25 160.5 C37.1132123 166.7735754 38.0967869 175.7504086 38.125 182.625 C38.12113281 183.57503906 38.11726562 184.52507812 38.11328125 185.50390625 C38.11457031 186.43332031 38.11585938 187.36273438 38.1171875 188.3203125 C38.11887939 189.56192139 38.11887939 189.56192139 38.12060547 190.82861328 C38.27763415 194.07051483 38.79098837 197.28691861 39.25 200.5 C15.82 200.5 -7.61 200.5 -31.75 200.5 C-31.75 197.2 -31.75 193.9 -31.75 190.5 C-32.41564547 186.91406082 -32.41564547 186.91406082 -33.5 183.6171875 C-33.8609375 182.43125 -34.221875 181.2453125 -34.59375 180.0234375 C-35.16609375 178.21746094 -35.16609375 178.21746094 -35.75 176.375 C-36.1315625 175.13234375 -36.513125 173.8896875 -36.90625 172.609375 C-37.84179923 169.56884 -38.78990442 166.53285513 -39.75 163.5 C-40.8567575 165.06940446 -41.96191052 166.63994047 -43.06640625 168.2109375 C-43.68201416 169.08540527 -44.29762207 169.95987305 -44.93188477 170.86083984 C-47.32734211 174.33806475 -49.54842685 177.89742575 -51.75 181.5 C-53.07 181.17 -54.39 180.84 -55.75 180.5 C-55.99363281 181.22316406 -56.23726562 181.94632813 -56.48828125 182.69140625 C-60.12288146 190.78204881 -69.38502683 200.05468638 -77.75 203.5 C-82.55287805 204.18159656 -86.59871973 203.99961219 -91.0625 202.0625 C-100.52466322 193.0404374 -103.35527516 177.71596258 -103.84313965 165.08943176 C-103.88134476 162.40676081 -103.88864967 159.72590454 -103.8828125 157.04296875 C-103.88376923 156.05935867 -103.88472595 155.0757486 -103.88571167 154.06233215 C-103.88638906 151.99069148 -103.88456567 149.91904864 -103.88037109 147.84741211 C-103.87503394 144.70746998 -103.88032226 141.56767201 -103.88671875 138.42773438 C-103.88605755 136.40364552 -103.88477554 134.37955676 -103.8828125 132.35546875 C-103.88483673 131.43114548 -103.88686096 130.5068222 -103.88894653 129.55448914 C-103.86951944 124.04281199 -103.51781203 118.64750002 -102.97460938 113.16410828 C-102.62952975 109.07109349 -102.62573738 104.99946578 -102.65234375 100.89453125 C-102.65446617 99.61940926 -102.65446617 99.61940926 -102.65663147 98.31852722 C-102.66215096 95.64981297 -102.6746872 92.98118814 -102.6875 90.3125 C-102.69252544 88.48372518 -102.6970865 86.65494903 -102.70117188 84.82617188 C-102.71209381 80.38408105 -102.72930077 75.94205559 -102.75 71.5 C-101.76 71.83 -100.77 72.16 -99.75 72.5 C-99.42 74.15 -99.09 75.8 -98.75 77.5 C-98.42 74.2 -98.09 70.9 -97.75 67.5 C-96.43 67.5 -95.11 67.5 -93.75 67.5 C-93.42 68.82 -93.09 70.14 -92.75 71.5 C-92.09 69.19 -91.43 66.88 -90.75 64.5 C-89.76 64.5 -88.77 64.5 -87.75 64.5 C-87.255 72.42 -87.255 72.42 -86.75 80.5 C-85.76 74.56 -85.76 74.56 -84.75 68.5 C-83.43 68.83 -82.11 69.16 -80.75 69.5 C-80.75 76.43 -80.75 83.36 -80.75 90.5 C-78.50269356 90.71407329 -78.50269356 90.71407329 -76.4375 88.5625 C-73.70570615 86.46600705 -72.11333725 85.8843814 -68.75 85.5 C-68.75 86.82 -68.75 88.14 -68.75 89.5 C-69.471875 90.03625 -70.19375 90.5725 -70.9375 91.125 C-75.61053735 95.07112043 -78.22328325 100.32222915 -79.22476196 106.36431885 C-79.41855217 109.46284844 -79.46850633 112.52831151 -79.45703125 115.6328125 C-79.47215256 116.75066132 -79.48727386 117.86851013 -79.50285339 119.02023315 C-79.54549546 122.55536442 -79.55454616 126.08963792 -79.5625 129.625 C-79.5856624 132.03648077 -79.61103132 134.44794141 -79.63867188 136.859375 C-79.70129215 142.73959168 -79.73641235 148.61947636 -79.75 154.5 C-79.42314209 153.70940186 -79.09628418 152.91880371 -78.75952148 152.10424805 C-77.51705993 149.11312071 -76.26530495 146.12609052 -75.00756836 143.14135742 C-74.46975893 141.85999724 -73.93545258 140.5771599 -73.4050293 139.29272461 C-64.46031132 117.65446172 -53.26186903 104.84375195 -32.0859375 94.6640625 C-29.84662176 93.70245425 -29.84662176 93.70245425 -28.75 92.5 C-31.1925541 91.99379664 -33.63596579 91.50054036 -36.0859375 91.03125 C-38.21703478 90.60628045 -40.33144198 90.09793848 -42.4375 89.5625 C-46.62474041 89.48349546 -47.7826562 90.810468 -50.92578125 93.33203125 C-54.34640554 95.52210975 -56.78092487 95.14017341 -60.75 94.5 C-64.43096216 91.52390294 -66.50997809 89.34016796 -67.125 84.625 C-67.125 79.76624062 -64.76805116 75.73210828 -62.6484375 71.46484375 C-61.51483116 67.72394282 -62.17453662 66.01525266 -63.75 62.5 C-64.28625 61.654375 -64.8225 60.80875 -65.375 59.9375 C-66.98848813 57.07722559 -67.21495689 55.7349128 -66.75 52.5 C-64.78125 50.69921875 -64.78125 50.69921875 -62.25 49.1875 C-61.4146875 48.67574219 -60.579375 48.16398437 -59.71875 47.63671875 C-59.0690625 47.26160156 -58.419375 46.88648438 -57.75 46.5 C-57.894375 45.345 -58.03875 44.19 -58.1875 43 C-58.27128906 42.27167969 -58.35507812 41.54335938 -58.44140625 40.79296875 C-58.71663881 38.51560025 -58.71663881 38.51560025 -59.21484375 36.36328125 C-59.625 34.3125 -59.625 34.3125 -59.75 30.5 C-57.7096601 27.6698511 -55.77652119 26.02385322 -52.66796875 24.4375 C-50.41296086 23.26733374 -48.59160494 22.25908019 -46.75 20.5 C-46.09770967 17.90371283 -46.00104871 15.54698226 -45.94140625 12.875 C-45.66284838 9.41860853 -44.26160621 7.79632568 -41.75 5.5 C-38.10321083 3.14639848 -34.21511511 2.96625598 -30 2.5625 C-23.50512856 1.86897715 -23.50512856 1.86897715 -17.3125 -0.125 C-11.25621129 -2.46251494 -6.07196792 -2.26565967 0 0 Z " fill="#173DFE" transform="translate(103.75,1.5)"/>
<path d="M0 0 C4.82266765 2.42395861 7.34540272 5.46759427 9.25 10.5 C9.81334073 13.46996547 10.20296469 16.43483946 10.58203125 19.43359375 C11.31588435 22.80245153 12.54097729 24.97219949 14.375 27.875 C17.78858131 33.50946554 17.65599544 38.17139368 17.16796875 44.62890625 C17.19503906 45.57636719 17.22210938 46.52382813 17.25 47.5 C20.1550193 49.68832556 20.1550193 49.68832556 23.6875 50.3125 C27.92186834 51.72395611 29.19188169 52.54841285 31.25 56.5 C32.03562932 61.35146352 31.85169855 65.22139058 29.75 69.6875 C22.57595031 77.75830591 16.07359047 82.14705119 5.25 83.5 C5.58 85.15 5.91 86.8 6.25 88.5 C9.22 89.16 12.19 89.82 15.25 90.5 C18.37535325 103.00141301 17.12657123 116.98000038 11.26953125 128.4140625 C7.7437172 134.25684007 2.58714038 137.35181682 -3.75 139.5 C-10.64319379 140.38944436 -15.24421026 138.73598598 -20.75 134.5 C-29.42167401 125.82832599 -35.49768409 111.92677362 -37.10546875 99.82421875 C-36.75 97.5 -36.75 97.5 -35 95.91796875 C-34.2575 95.51191406 -33.515 95.10585937 -32.75 94.6875 C-32.0075 94.26855469 -31.265 93.84960938 -30.5 93.41796875 C-29.63375 92.96357422 -29.63375 92.96357422 -28.75 92.5 C-31.1925541 91.99379664 -33.63596579 91.50054036 -36.0859375 91.03125 C-38.21703478 90.60628045 -40.33144198 90.09793848 -42.4375 89.5625 C-46.62474041 89.48349546 -47.7826562 90.810468 -50.92578125 93.33203125 C-54.34640554 95.52210975 -56.78092487 95.14017341 -60.75 94.5 C-64.43096216 91.52390294 -66.50997809 89.34016796 -67.125 84.625 C-67.125 79.76624062 -64.76805116 75.73210828 -62.6484375 71.46484375 C-61.51483116 67.72394282 -62.17453662 66.01525266 -63.75 62.5 C-64.28625 61.654375 -64.8225 60.80875 -65.375 59.9375 C-66.98848813 57.07722559 -67.21495689 55.7349128 -66.75 52.5 C-64.78125 50.69921875 -64.78125 50.69921875 -62.25 49.1875 C-61.4146875 48.67574219 -60.579375 48.16398437 -59.71875 47.63671875 C-59.0690625 47.26160156 -58.419375 46.88648438 -57.75 46.5 C-57.894375 45.345 -58.03875 44.19 -58.1875 43 C-58.27128906 42.27167969 -58.35507812 41.54335938 -58.44140625 40.79296875 C-58.71663881 38.51560025 -58.71663881 38.51560025 -59.21484375 36.36328125 C-59.625 34.3125 -59.625 34.3125 -59.75 30.5 C-57.7096601 27.6698511 -55.77652119 26.02385322 -52.66796875 24.4375 C-50.41296086 23.26733374 -48.59160494 22.25908019 -46.75 20.5 C-46.09770967 17.90371283 -46.00104871 15.54698226 -45.94140625 12.875 C-45.66284838 9.41860853 -44.26160621 7.79632568 -41.75 5.5 C-38.10321083 3.14639848 -34.21511511 2.96625598 -30 2.5625 C-23.50512856 1.86897715 -23.50512856 1.86897715 -17.3125 -0.125 C-11.25621129 -2.46251494 -6.07196792 -2.26565967 0 0 Z " fill="#AC7964" transform="translate(103.75,1.5)"/>
<path d="M0 0 C4.82266765 2.42395861 7.34540272 5.46759427 9.25 10.5 C9.81334073 13.46996547 10.20296469 16.43483946 10.58203125 19.43359375 C11.31588435 22.80245153 12.54097729 24.97219949 14.375 27.875 C17.78858131 33.50946554 17.65599544 38.17139368 17.16796875 44.62890625 C17.19503906 45.57636719 17.22210938 46.52382813 17.25 47.5 C20.1550193 49.68832556 20.1550193 49.68832556 23.6875 50.3125 C27.92186834 51.72395611 29.19188169 52.54841285 31.25 56.5 C32.03562932 61.35146352 31.85169855 65.22139058 29.75 69.6875 C24.04425123 76.10646737 18.14136488 81.92462988 9.19140625 82.671875 C7.54332813 82.68513921 5.89492189 82.60280762 4.25 82.5 C3.92 80.52 3.59 78.54 3.25 76.5 C3.9925 76.04625 4.735 75.5925 5.5 75.125 C10.6037157 70.25327137 12.46351877 64.09933626 12.75 57.125 C12.50753151 49.66666934 10.80199753 42.40540809 9.22265625 35.13671875 C8.38464725 31.26916819 7.7531494 27.42456535 7.25 23.5 C6.528125 23.2525 5.80625 23.005 5.0625 22.75 C2.00286734 21.39016326 -0.2173738 19.67082246 -2.75 17.5 C-3.44996094 17.95503906 -4.14992187 18.41007812 -4.87109375 18.87890625 C-8.71790103 21.0450189 -12.68833523 22.11003208 -16.91015625 23.33984375 C-20.13775369 24.65840832 -21.73474857 25.64667526 -23.75 28.5 C-24.04621802 31.80811099 -24.04621802 31.80811099 -23.6875 35.375 C-23.46227668 41.97472575 -23.46227668 41.97472575 -24.84765625 44.50390625 C-25.31042969 44.97699219 -25.77320313 45.45007812 -26.25 45.9375 C-29.07710985 48.33110855 -29.07710985 48.33110855 -29.25 52 C-28.9344662 55.52635231 -28.9344662 55.52635231 -27.25 58.5 C-25.42999993 62.14000015 -25.38389287 64.47282154 -25.75 68.5 C-26.40257873 70.172233 -27.06867549 71.83927151 -27.75 73.5 C-28.03838457 77.65405674 -28.03838457 77.65405674 -26.75 81.5 C-26.58203125 83.375 -26.58203125 83.375 -26.5625 85.5 C-26.54832031 86.20125 -26.53414062 86.9025 -26.51953125 87.625 C-26.75 89.5 -26.75 89.5 -28.75 91.5 C-32.77554504 91.76397017 -35.63642176 91.95073405 -39.375 90.4375 C-42.60463921 89.16264242 -44.43944593 89.53442173 -47.75 90.5 C-48.53375 91.180625 -49.3175 91.86125 -50.125 92.5625 C-53.24620236 94.8662446 -55.01936135 95.14428822 -58.81640625 94.96484375 C-62.11490061 94.17187238 -63.71881062 92.08515012 -65.75 89.5 C-67.27063537 86.45872926 -67.29518443 83.78814361 -66.75 80.5 C-65.49685065 77.42071525 -64.12734086 74.44221269 -62.6484375 71.46484375 C-61.51483116 67.72394282 -62.17453662 66.01525266 -63.75 62.5 C-64.28625 61.654375 -64.8225 60.80875 -65.375 59.9375 C-66.98848813 57.07722559 -67.21495689 55.7349128 -66.75 52.5 C-64.78125 50.69921875 -64.78125 50.69921875 -62.25 49.1875 C-61.4146875 48.67574219 -60.579375 48.16398437 -59.71875 47.63671875 C-59.0690625 47.26160156 -58.419375 46.88648438 -57.75 46.5 C-57.894375 45.345 -58.03875 44.19 -58.1875 43 C-58.27128906 42.27167969 -58.35507812 41.54335938 -58.44140625 40.79296875 C-58.71663881 38.51560025 -58.71663881 38.51560025 -59.21484375 36.36328125 C-59.625 34.3125 -59.625 34.3125 -59.75 30.5 C-57.7096601 27.6698511 -55.77652119 26.02385322 -52.66796875 24.4375 C-50.41296086 23.26733374 -48.59160494 22.25908019 -46.75 20.5 C-46.09770967 17.90371283 -46.00104871 15.54698226 -45.94140625 12.875 C-45.66284838 9.41860853 -44.26160621 7.79632568 -41.75 5.5 C-38.10321083 3.14639848 -34.21511511 2.96625598 -30 2.5625 C-23.50512856 1.86897715 -23.50512856 1.86897715 -17.3125 -0.125 C-11.25621129 -2.46251494 -6.07196792 -2.26565967 0 0 Z " fill="#131413" transform="translate(103.75,1.5)"/>
<path d="M0 0 C11.106573 -0.5462249 22.77385713 2.1692884 31.59423828 9.28637695 C37.31223792 14.51465164 40.71685024 20.93669271 44.375 27.6875 C45.31666016 29.37842773 45.31666016 29.37842773 46.27734375 31.10351562 C51.25642796 40.14222033 51.25642796 40.14222033 52 44 C46.15624116 45.8189995 40.30568772 46.90475983 34.27319336 47.90771484 C33.21510971 48.08689957 32.15702606 48.26608429 31.06687927 48.45069885 C27.57514308 49.04111918 24.08250048 49.62598953 20.58984375 50.2109375 C18.14141954 50.62409597 15.6930614 51.03764611 13.24476624 51.4515686 C7.44929571 52.43058157 1.65327375 53.40626957 -4.14306301 54.38013995 C-15.07653952 56.21724042 -26.00878453 58.06164453 -36.94088554 59.90690994 C-40.49729348 60.50651645 -44.05404366 61.10405582 -47.6108551 61.70126343 C-59.17728786 63.64786644 -70.73154528 65.63752429 -82.25884342 67.80573082 C-83.52797156 68.04167174 -83.52797156 68.04167174 -84.82273865 68.28237915 C-85.56066367 68.42146509 -86.2985887 68.56055103 -87.05887508 68.7038517 C-89 69 -89 69 -92 69 C-91.08148168 62.26357418 -88.51896212 56.53213962 -85.875 50.3125 C-85.41351563 49.19166016 -84.95203125 48.07082031 -84.4765625 46.91601562 C-77.98195771 31.5448562 -69.31374733 17.69120942 -54 10 C-52.33951481 9.63712561 -50.67311755 9.2992767 -49 9 C-48.82460693 9.57331055 -48.64921387 10.14662109 -48.46850586 10.73730469 C-42.30662884 32.21236781 -42.30662884 32.21236781 -27.1875 47.75 C-22.17679519 49.71498228 -18.39118819 49.87508845 -13.40625 48.05078125 C-5.90983327 44.55612816 -2.70043689 41.13059023 0.1875 33.375 C0.80229448 31.58695231 1.40792028 29.79569719 2 28 C2.495 26.515 2.495 26.515 3 25 C3.08239169 23.15389468 3.10743359 21.30494836 3.09765625 19.45703125 C3.09443359 18.38388672 3.09121094 17.31074219 3.08789062 16.20507812 C3.07951172 15.08552734 3.07113281 13.96597656 3.0625 12.8125 C3.05798828 11.68134766 3.05347656 10.55019531 3.04882812 9.38476562 C3.03703498 6.58979073 3.0205765 3.7949218 3 1 C2.01 0.67 1.02 0.34 0 0 Z " fill="#1B40FE" transform="translate(116,91)"/>
<path d="M0 0 C0.99 0 1.98 0 3 0 C3.495 7.92 3.495 7.92 4 16 C4.66 12.04 5.32 8.08 6 4 C7.32 4.33 8.64 4.66 10 5 C10 11.93 10 18.86 10 26 C12.24730644 26.21407329 12.24730644 26.21407329 14.3125 24.0625 C17.04429385 21.96600705 18.63666275 21.3843814 22 21 C22 22.32 22 23.64 22 25 C21.278125 25.53625 20.55625 26.0725 19.8125 26.625 C14.53852081 31.07858242 12.09644884 36.44832027 11.50463867 43.32421875 C11.22281148 48.44315681 11.2029817 53.56211919 11.1875 58.6875 C11.16430018 60.44208763 11.13892371 62.19664788 11.11132812 63.95117188 C11.03998108 68.96748585 11.01116122 73.98322262 11 79 C10.99824768 79.7747467 10.99649536 80.54949341 10.99468994 81.34771729 C10.98729986 85.56517783 10.98917058 89.78254118 11 94 C11.89078247 94.41427246 11.89078247 94.41427246 12.79956055 94.83691406 C14.87921578 95.9361571 16.44087703 97.07016901 18.20703125 98.609375 C19.0877832 99.37121094 19.0877832 99.37121094 19.98632812 100.1484375 C20.58896484 100.67695313 21.19160156 101.20546875 21.8125 101.75 C22.40353516 102.26304687 22.99457031 102.77609375 23.60351562 103.3046875 C24.79506982 104.33901371 25.98534391 105.3748165 27.17431641 106.41210938 C30.10175849 108.95825585 33.05068393 111.47925554 36 114 C33.09038861 123.31075646 24.6134762 132.16181826 16.625 137.5 C11.90479081 139.45319001 8.03577258 139.79205032 3 139 C-3.01589114 136.38933026 -5.58951077 131.85635639 -8 126 C-11.56514991 114.84993383 -13.1581989 104.21130282 -13.1328125 92.54296875 C-13.13376923 91.55935867 -13.13472595 90.5757486 -13.13571167 89.56233215 C-13.13638906 87.49069148 -13.13456567 85.41904864 -13.13037109 83.34741211 C-13.12503394 80.20746998 -13.13032226 77.06767201 -13.13671875 73.92773438 C-13.13605755 71.90364552 -13.13477554 69.87955676 -13.1328125 67.85546875 C-13.13483673 66.93114548 -13.13686096 66.0068222 -13.13894653 65.05448914 C-13.11951944 59.54281199 -12.76781203 54.14750002 -12.22460938 48.66410828 C-11.87952975 44.57109349 -11.87573738 40.49946578 -11.90234375 36.39453125 C-11.90446617 35.11940926 -11.90446617 35.11940926 -11.90663147 33.81852722 C-11.91215096 31.14981297 -11.9246872 28.48118814 -11.9375 25.8125 C-11.94252544 23.98372518 -11.9470865 22.15494903 -11.95117188 20.32617188 C-11.96209381 15.88408105 -11.97930077 11.44205559 -12 7 C-11.01 7.33 -10.02 7.66 -9 8 C-8.67 9.65 -8.34 11.3 -8 13 C-7.67 9.7 -7.34 6.4 -7 3 C-5.68 3 -4.36 3 -3 3 C-2.67 4.32 -2.34 5.64 -2 7 C-1.34 4.69 -0.68 2.38 0 0 Z " fill="#AE7A65" transform="translate(13,66)"/>
<path d="M0 0 C-0.00785522 1.17187866 -0.00785522 1.17187866 -0.01586914 2.36743164 C-0.03675119 5.93244613 -0.04969581 9.49744771 -0.0625 13.0625 C-0.07506836 14.90618164 -0.07506836 14.90618164 -0.08789062 16.78710938 C-0.09272461 18.58051758 -0.09272461 18.58051758 -0.09765625 20.41015625 C-0.10551147 22.05189819 -0.10551147 22.05189819 -0.11352539 23.72680664 C0.00586815 27.16919191 0.51288048 30.59016338 1 34 C-22.43 34 -45.86 34 -70 34 C-70 30.7 -70 27.4 -70 24 C-70.60524997 21.08737184 -70.60524997 21.08737184 -71.5625 18.6875 C-72.93286395 15.0027436 -73.02004499 12.81672464 -72 9 C-71.00097656 8.95101562 -70.00195312 8.90203125 -68.97265625 8.8515625 C-67.68230469 8.77679688 -66.39195313 8.70203125 -65.0625 8.625 C-63.77472656 8.55539063 -62.48695312 8.48578125 -61.16015625 8.4140625 C-60.11730469 8.27742187 -59.07445313 8.14078125 -58 8 C-57.67 7.34 -57.34 6.68 -57 6 C-54.25390625 5.67602539 -54.25390625 5.67602539 -50.5625 5.53515625 C-44.69519007 5.24346769 -38.93626405 4.66826082 -33.125 3.80859375 C-32.37766602 3.69842926 -31.63033203 3.58826477 -30.86035156 3.47476196 C-28.5728798 3.13339994 -26.28634097 2.78635028 -24 2.4375 C-21.67674904 2.08419344 -19.35329041 1.73283196 -17.02880859 1.38771057 C-15.60002176 1.17553895 -14.17189234 0.95886751 -12.74462891 0.73667908 C-8.46147544 0.10006297 -4.32709695 -0.09505863 0 0 Z " fill="#183DFE" transform="translate(142,168)"/>
<path d="M0 0 C3 1 3 1 4.09985352 2.57824707 C4.60923462 3.60009094 4.60923462 3.60009094 5.12890625 4.64257812 C5.51941162 5.41428345 5.90991699 6.18598877 6.31225586 6.9810791 C6.72483643 7.8226355 7.13741699 8.66419189 7.5625 9.53125 C7.99506104 10.39633179 8.42762207 11.26141357 8.87329102 12.15270996 C9.78911776 13.98973318 10.70003483 15.8292109 11.60644531 17.67089844 C12.98346092 20.46642347 14.37703696 23.25317918 15.7734375 26.0390625 C16.66246584 27.82762456 17.55051722 29.61667262 18.4375 31.40625 C19.05637085 32.64429382 19.05637085 32.64429382 19.68774414 33.90734863 C20.07824951 34.70427124 20.46875488 35.50119385 20.87109375 36.32226562 C21.21068115 37.00985962 21.55026855 37.69745361 21.90014648 38.40588379 C23.50025642 42.17990557 24.7037133 46.11113989 26 50 C17.09 50 8.18 50 -1 50 C-5.33606358 41.48273225 -9.58627389 32.94175949 -13.5625 24.25 C-14.10003906 23.10748779 -14.10003906 23.10748779 -14.6484375 21.94189453 C-14.97199219 21.22372559 -15.29554688 20.50555664 -15.62890625 19.765625 C-15.91838135 19.13430664 -16.20785645 18.50298828 -16.50610352 17.85253906 C-17.14052152 15.47292276 -16.93503747 14.27413152 -16 12 C-14.46533203 10.4284668 -14.46533203 10.4284668 -12.5078125 8.94921875 C-11.80269531 8.41619141 -11.09757813 7.88316406 -10.37109375 7.33398438 C-9.62988281 6.79064453 -8.88867188 6.24730469 -8.125 5.6875 C-7.39152344 5.12482422 -6.65804687 4.56214844 -5.90234375 3.98242188 C-5.19464844 3.45583984 -4.48695313 2.92925781 -3.7578125 2.38671875 C-2.78545654 1.66295044 -2.78545654 1.66295044 -1.79345703 0.92456055 C-1.20161621 0.61945557 -0.60977539 0.31435059 0 0 Z " fill="#AE7A65" transform="translate(172,152)"/>
<path d="M0 0 C6.6 0.33 13.2 0.66 20 1 C20.33 2.65 20.66 4.3 21 6 C14.21569743 6.33124081 8.99546998 6.37245186 3 3 C2.01 2.01 1.02 1.02 0 0 Z " fill="#6F4332" transform="translate(87,78)"/>
<path d="M0 0 C2.375 -0.1875 2.375 -0.1875 5 0 C5.66 0.99 6.32 1.98 7 3 C4.35261084 4.4606285 3.10551666 5 0 5 C0 3.35 0 1.7 0 0 Z " fill="#206639" transform="translate(95,58)"/>
<path d="M0 0 C0.763125 0.20625 1.52625 0.4125 2.3125 0.625 C1 3.125 1 3.125 -0.6875 5.625 C-1.6775 5.625 -2.6675 5.625 -3.6875 5.625 C-3.6875 4.635 -3.6875 3.645 -3.6875 2.625 C-4.3475 2.295 -5.0075 1.965 -5.6875 1.625 C-2.6875 -0.375 -2.6875 -0.375 0 0 Z " fill="#4F4845" transform="translate(87.6875,38.375)"/>
<path d="M0 0 C2.625 0.375 2.625 0.375 5 1 C4.01 1.495 4.01 1.495 3 2 C3 3.32 3 4.64 3 6 C1.0625 5.6875 1.0625 5.6875 -1 5 C-1.33 4.01 -1.66 3.02 -2 2 C-1.34 1.34 -0.68 0.68 0 0 Z " fill="#4C4644" transform="translate(105,33)"/>
</svg>
