<svg width="45" height="47" viewBox="0 0 45 47" fill="none" xmlns="http://www.w3.org/2000/svg">
<path d="M30.8015 17.3906C30.7773 17.3662 30.7538 17.3429 30.7299 17.3211L30.8639 17.3562L30.2431 16.7307C30.2005 16.6826 30.1543 16.6496 30.0849 16.6001C30.0606 16.5808 30.0239 16.5523 29.9898 16.5398C29.9263 16.508 29.8473 16.492 29.7482 16.492C29.6605 16.492 29.5687 16.505 29.536 16.5117L29.4016 16.4758L29.4453 16.5272C29.3168 16.5634 29.2038 16.6726 29.1212 16.7758C28.8921 16.9334 28.7482 17.1953 28.62 17.428C28.6009 17.462 28.5826 17.4957 28.5646 17.5278C28.5037 17.5719 28.4611 17.6322 28.4357 17.6773C28.1655 18.0065 27.9206 18.3594 27.7499 18.6672C27.7444 18.6742 27.2415 19.3138 27.0884 19.6387C27.0282 19.7108 26.9654 19.7833 26.9019 19.8562C26.697 20.0915 26.4855 20.3349 26.3394 20.5953C25.9403 21.148 25.143 22.2027 25.1433 22.2023C24.9421 22.4631 24.7343 22.715 24.5276 22.9662C24.1828 23.3842 23.8267 23.817 23.5114 24.2787C23.4934 24.3046 23.471 24.3442 23.4457 24.3889C23.424 24.4274 23.3814 24.5025 23.3462 24.5524C23.3304 24.5288 23.3135 24.4977 23.301 24.4755C23.2669 24.4144 23.2276 24.3453 23.1726 24.2864C23.1054 24.2139 23.0422 24.1544 22.9816 24.097C22.8653 23.9872 22.7735 23.9006 22.6773 23.7319C22.2775 23.106 21.4848 22.0558 20.6651 22.0558C20.3269 22.0558 20.0314 22.2252 19.7645 22.5948C19.7329 22.6588 19.6779 22.739 19.6195 22.8264C19.4866 23.0254 19.3353 23.251 19.3012 23.4327C19.0394 24.2236 19.5784 24.6079 20.0116 24.9165C20.1974 25.0485 20.3728 25.1739 20.5021 25.333C20.7326 25.5864 20.9452 25.8487 21.1589 26.1124C21.4526 26.4746 21.7566 26.849 22.1101 27.206C22.1718 27.2681 22.265 27.3972 22.3634 27.5348C22.6744 27.9673 23.0617 28.5048 23.5092 28.5048C23.5455 28.5048 23.5822 28.5011 23.6182 28.4937C23.9417 28.4282 24.1807 28.1367 24.3734 27.9029C24.4171 27.85 24.4579 27.7997 24.4964 27.7568C24.5955 27.6476 24.6987 27.547 24.8008 27.446C24.955 27.2943 25.115 27.1375 25.2633 26.9522L25.3632 26.8275C25.8713 26.1923 26.3974 25.5353 26.8728 24.8562L27.6276 23.7912C27.726 23.6425 27.9735 23.294 27.9801 23.287C28.2257 22.9895 28.4702 22.6943 28.649 22.4665C28.8127 22.3015 29.0179 21.9926 29.0168 21.9926C29.1163 21.8672 29.2037 21.754 29.2911 21.6408C29.3792 21.5268 29.4666 21.4133 29.5789 21.2701L29.8701 20.8299C29.9861 20.6782 30.1182 20.5236 30.2541 20.3653C30.7133 19.8285 31.2336 19.2211 31.3158 18.5127C31.3863 18.1576 31.1822 17.8313 31.0449 17.6534C30.9733 17.5084 30.8128 17.3933 30.8015 17.3907L30.8015 17.3906Z" fill="#F9EFEF"/>
<path d="M42.108 9.59853C42.0757 8.82797 42.0863 8.06114 41.9909 7.29349C41.837 6.04532 41.4464 4.19494 39.9251 4.03594C39.0935 3.94863 38.2686 4.04075 37.4433 3.922C36.7388 3.82027 36.0295 3.72224 35.3157 3.73962C34.5293 3.75923 34.221 4.05369 34.2029 3.1655C34.2029 3.16513 34.2 3.01789 34.2 3.01789C34.2 2.52552 34.1493 1.68724 34.1332 1.43088C34.2969 1.13235 34.3303 0.728013 34.0935 0.452421C34.077 0.419497 34.0561 0.386574 34.03 0.354765L34.0462 0.331829C34.0117 0.301864 33.9772 0.278931 33.9405 0.258215C33.7602 0.100252 33.4988 0.0096217 33.4698 0L33.4448 0.0562292C33.2356 0.0247853 32.994 0.0543794 32.7745 0.0869333C32.4852 0.129475 32.1973 0.132805 31.8533 0.0869333C31.6705 0.0625182 31.4818 0.0373628 31.2949 0.0373628C30.9355 0.0373628 30.6612 0.137615 30.4568 0.343667C30.0125 0.791284 30.0221 1.30584 30.0301 1.75974L30.032 1.9436C30.032 1.97097 30.0382 2.02128 30.0467 2.07973C30.0503 2.10414 30.0566 2.14373 30.0599 2.17739L30.0437 2.22659C29.9608 2.47703 29.956 2.78962 30.0301 3.11034L30.0287 3.13402C30.0221 3.22576 30.0092 3.40518 30.0055 3.61863C29.453 3.54834 28.8506 3.5095 28.3252 3.56758C27.9705 3.60716 21.6794 3.68743 21.4015 3.76475C21.1628 3.8317 20.9371 3.89422 20.665 3.92937L18.1205 3.78805C18.1249 3.58829 18.1175 3.38927 18.112 3.21984C18.1083 3.11626 18.105 3.02267 18.105 2.94647L18.0933 2.871C18.0507 2.74152 18.0342 2.45335 18.0342 2.30242C18.0342 2.12966 17.8906 1.93027 17.7478 1.7749C17.7221 1.22111 17.4769 0.801274 17.0506 0.586301C16.8953 0.507877 16.7085 0.494559 16.5719 0.495668C15.867 0.379877 15.2403 0.432041 14.8251 0.672496C14.603 0.821206 14.5049 0.973619 14.3915 1.15008L14.2946 1.28695V1.35909C14.2913 1.37906 14.2685 1.43825 14.2476 1.48042L14.2278 1.53998C14.1536 1.91434 14.0761 2.30203 14.1521 2.66011C14.1521 2.81215 14.169 2.98157 14.1863 3.15137C14.1973 3.25902 14.2087 3.36667 14.2142 3.46878C14.1892 3.55941 14.1653 3.65041 14.1426 3.74068C14.0629 4.05808 10.3057 3.95005 9.92537 3.96744C9.27372 3.99703 8.14078 4.03328 7.61907 4.50532C7.05956 5.011 6.99788 6.19811 6.86278 6.90468C6.59624 8.3004 6.57862 9.72244 6.51804 11.1378C6.46701 12.3282 6.70748 13.5193 6.485 14.6912C6.45049 14.874 6.41488 15.0623 6.41488 15.2561C6.41488 15.6682 6.34585 16.5065 6.34659 16.5065C6.02132 18.5367 6.27463 24.979 6.543 27.0136L6.63111 27.6884C6.7754 28.5607 6.91858 29.3542 7.20824 30.2294C7.24752 30.3474 7.30479 30.4654 7.36353 30.5834C7.41199 30.6804 7.46045 30.7766 7.50561 30.9049C7.56655 31.0285 7.66311 31.1443 7.71964 31.2068C7.86649 31.6799 8.14184 32.0757 8.54458 32.3983C8.69547 32.55 8.98733 32.6813 9.09307 32.7257C9.40659 32.9491 9.9896 33.1485 10.0263 33.1585C10.0979 33.1948 10.1599 33.2306 10.2176 33.2643C10.3876 33.3631 10.5491 33.4571 10.7911 33.4689C10.9687 33.5384 11.272 33.5928 11.3469 33.6043C12.1865 33.8425 13.1054 33.9579 14.1572 33.9579C15.0468 33.9579 15.9462 33.8773 16.816 33.7996C17.2922 33.7571 17.7683 33.7142 18.2298 33.6846C18.4728 33.6846 18.7155 33.7023 18.9589 33.7197C19.8364 33.7833 20.7123 33.7215 21.5362 33.6453C22.1104 33.5921 28.6567 33.5414 29.1887 33.541C29.457 33.5606 29.7148 33.585 29.9681 33.6091C30.4824 33.6583 30.9682 33.7045 31.4895 33.7045C31.6771 33.7045 31.8673 33.6982 32.0465 33.6849C32.2807 33.6849 32.5171 33.6886 32.7543 33.6931C33.942 33.713 35.1994 33.7493 36.4667 33.2388C36.7215 33.1363 36.9733 33.0002 37.1955 32.88C37.2953 32.8259 37.3911 32.7745 37.4796 32.7301C37.5776 32.6806 37.676 32.621 37.784 32.5541C37.8097 32.5555 37.835 32.5563 37.8607 32.5563C38.3637 32.5563 38.8674 32.2418 39.4129 31.5815C39.5187 31.4328 39.6564 31.2574 39.8069 31.0666C40.1579 30.6208 40.5944 30.0666 40.8594 29.5306C41.4854 28.0169 41.7747 21.9803 41.7963 20.1089L41.8011 20.0704L41.7993 19.8673L41.8228 19.6765C41.8845 19.1859 41.9425 18.7228 41.9425 18.2633C41.9425 17.9763 41.8999 17.4813 41.88 17.2682C42.0276 17.0692 42.0779 16.8176 42.0137 16.5812L42.0118 16.2975C41.9729 16.0263 41.9527 15.7263 41.9333 15.4359L41.9303 15.4126C41.9696 14.4039 42.024 13.3266 42.2248 12.2143C42.3489 11.325 42.1443 10.4716 42.108 9.59853ZM39.9456 17.1052C39.9246 17.2117 39.9059 17.3175 39.9059 17.4026V19.1202C39.9059 19.2833 39.8901 19.4468 39.8743 19.6174C39.8549 19.8201 39.835 20.0324 39.835 20.2647C39.835 20.3432 39.7976 20.5292 39.7679 20.6528C39.5747 21.7533 39.3071 27.4421 38.6529 28.5434C38.4319 28.9899 38.1518 29.476 37.8864 29.8773L37.8588 29.9339C37.792 30.1348 37.7347 30.238 37.6319 30.3412L37.5622 30.4108V30.4333C37.5556 30.437 37.549 30.4411 37.5423 30.4448C36.9149 30.7959 36.2732 31.0833 35.6648 31.3574C35.0557 31.562 34.3186 31.5879 33.7443 31.5879C33.4583 31.5879 33.1723 31.5801 32.8944 31.5735C32.6264 31.5664 32.365 31.5598 32.1176 31.5598C31.1612 31.5598 30.1519 31.6138 29.1761 31.6663C27.0302 31.7813 24.8671 31.7407 22.719 31.7588C19.8668 31.7832 17.1019 31.9552 14.2431 31.9219C12.1305 31.8971 11.2492 31.7096 10.4241 29.6343C10.2879 29.2918 10.2211 29.0213 10.1499 28.735L10.1319 28.6858C10.1117 28.6447 10.0915 28.5889 10.071 28.5341C10.0339 28.4357 9.99717 28.3355 9.94357 28.2589C9.9432 28.0048 9.93512 27.7425 9.87271 27.4747C9.86831 27.2853 9.82095 27.1055 9.76698 26.8987L9.731 26.7585V26.6453C9.731 26.0871 9.69135 20.9888 9.65243 20.4293C9.60177 19.6899 9.5489 18.9248 9.58819 18.2064C9.64986 17.3974 9.76661 16.6394 9.89033 15.8374L9.94246 15.4981C9.97477 15.2407 10.0196 14.9677 10.0662 14.6865C10.0992 14.4871 10.133 14.2833 10.1631 14.0787C10.7916 14.1298 11.3824 14.1908 12.1934 14.2759H13.1167C13.3061 14.2759 13.5352 14.2285 13.6285 14.2071C14.2625 14.2733 14.978 14.2108 15.6242 14.1423C16.0625 14.0957 16.477 14.0517 16.9022 14.0517C17.0083 14.0517 17.1147 14.0547 17.2359 14.0613C17.8262 14.0613 18.2815 14.0443 18.7495 14.0269C19.2385 14.0088 19.7419 13.9896 20.4387 13.9896C22.7237 13.9219 31.0309 13.9718 33.7508 14.1327C34.4091 14.1327 34.8518 14.0917 35.4113 14.0391C35.5843 14.0229 35.7678 14.0058 35.9525 13.9896C36.24 13.9896 36.5113 14.0062 36.7741 14.0225C37.3399 14.0569 37.8891 14.0687 38.326 13.9877C38.7791 13.9311 39.3657 14.021 39.8658 13.8786C39.8742 14.0317 39.8816 14.1767 39.8882 14.3066C39.8691 14.4727 39.8507 14.6388 39.8423 14.7672C39.7641 15.082 39.7641 15.3879 39.7674 15.7227C39.7986 15.9125 39.8441 16.1577 39.8849 16.3793C39.9311 16.6324 39.973 16.8525 39.9774 16.9002C39.9763 16.9597 39.9594 17.0322 39.9451 17.1051L39.9456 17.1052Z" fill="#F9EFEF"/>
<path d="M3.4922 24.9213C3.39087 23.4464 4.58694 18.8733 2.56887 18.3129C1.48249 18.0114 0.22732 18.5223 0.226944 19.7468C0.226944 20.1589 0.153151 20.9971 0.153886 20.9971C-0.171388 23.0273 0.0797261 29.4696 0.347731 31.5043L0.434374 32.179C0.57866 33.0513 0.72147 33.8448 1.01077 34.7201C1.05005 34.8381 1.10695 34.9561 1.16569 35.0741C1.21415 35.171 1.26261 35.2672 1.3074 35.3956C1.36835 35.5191 1.4649 35.6349 1.52107 35.6974C1.66792 36.1706 1.94327 36.5664 2.34601 36.889C2.4969 37.0406 2.78876 37.172 2.89449 37.2164C3.20802 37.4398 3.79103 37.6392 3.82774 37.6492C3.89933 37.6854 3.96138 37.7213 4.01902 37.755C4.189 37.8537 4.35053 37.9477 4.59248 37.9595C4.77017 38.0291 5.07342 38.0835 5.14832 38.0949C5.98795 38.3332 6.90688 38.4486 7.95867 38.4486C8.84822 38.4486 9.74768 38.3679 10.6174 38.2903C11.0936 38.2477 11.5698 38.2048 12.0312 38.1752C12.2743 38.1752 12.517 38.193 12.7604 38.2104C13.6378 38.274 14.5137 38.2122 15.3376 38.136C15.9118 38.0827 22.4581 38.032 22.9901 38.0317C23.2585 38.0513 23.5162 38.0757 23.7695 38.0997C24.2839 38.1489 24.7696 38.1952 25.2909 38.1952C26.2253 38.1952 28.9674 38.2666 28.2805 36.6821C27.9373 35.8901 26.6167 36.0525 25.918 36.0525C24.962 36.0525 23.9524 36.1065 22.9766 36.1591C21.9798 36.212 14.9456 36.2674 13.9775 36.2693C13.5751 36.2186 13.1591 36.1661 12.7424 36.1661C12.5548 36.1661 12.3819 36.1761 12.2328 36.1957C10.1883 36.4643 7.85668 36.4702 5.80216 36.2749C5.61897 36.1284 5.41778 36.0015 5.18906 35.8883C4.75401 35.4629 4.39753 34.8181 4.22355 34.1264C4.08735 33.7838 4.02052 33.5134 3.9493 33.2271L3.93131 33.1779C3.91112 33.1368 3.89093 33.0809 3.87037 33.0262C3.83329 32.9278 3.79657 32.8275 3.74297 32.751C3.7426 32.4968 3.73453 32.2345 3.67211 31.9667C3.66771 31.7773 3.65963 31.5975 3.60566 31.3907L3.61007 31.2502V31.1373C3.61007 30.5791 3.53077 25.4804 3.49222 24.9214L3.4922 24.9213Z" fill="#F9EFEF"/>
</svg>
