<svg width="33" height="35" viewBox="0 0 33 35" fill="none" xmlns="http://www.w3.org/2000/svg">
<path d="M33 17.4994C33 7.8491 25.6426 0 16.5 0C7.35742 0 0 7.84981 0 17.5006C0 27.1509 7.35742 35 16.5 35C25.6426 35 33 27.1507 33 17.4994ZM25.6426 13.2514L17.0664 22.2556L14.7156 24.7489C13.9319 25.5339 12.6694 25.5339 11.9294 24.7027L9.535 22.2556L7.35831 19.9007C7.01008 19.4851 6.79232 18.9774 6.79232 18.4233C6.79232 17.8693 7.01008 17.3611 7.40194 16.9459C8.18567 16.1609 9.40444 16.1609 10.1882 16.9459L13.3663 20.3167L22.944 10.2971C23.3359 9.88147 23.8146 9.6968 24.3369 9.6968C24.8593 9.6968 25.3816 9.92776 25.7299 10.2971C26.0781 10.7127 26.2959 11.2205 26.2959 11.7745C26.2086 12.3281 26.0344 12.8821 25.6426 13.2514Z" fill="white"/>
<path d="M7.40515 16.8881C7.01328 17.3037 6.79553 17.8114 6.79553 18.3655C6.79553 18.9195 7.01329 19.4735 7.36152 19.8429L9.53822 22.1978L11.9326 24.6448C12.7163 25.4761 13.9788 25.4761 14.7188 24.6911L17.0696 22.1978L25.6895 13.2404C26.0814 12.8711 26.2555 12.3171 26.2555 11.763C26.2555 11.209 26.0377 10.655 25.6895 10.2856C25.2976 9.86994 24.8189 9.68527 24.2965 9.68527C23.7742 9.68527 23.2518 9.91623 22.9036 10.2856L13.3259 20.3052L10.1913 16.9344C9.40804 16.1031 8.1889 16.1031 7.40515 16.8881Z" fill="#007F32"/>
</svg>
