<?xml version="1.0" encoding="UTF-8"?>
<svg id="Camada_2" xmlns="http://www.w3.org/2000/svg" viewBox="0 0 850.8 242.07">
  <defs>
    <style>
      .cls-1 {
        fill: #fff;
      }

      .cls-2 {
        fill: #020202;
      }

      .cls-3 {
        fill: #ffdc6d;
      }

      .cls-4 {
        fill: #508c74;
      }

      .cls-5 {
        fill: #e85444;
      }

      .cls-6 {
        fill: #649ddc;
      }

      .cls-7 {
        fill: #f48438;
      }

      .cls-8 {
        fill: #369;
      }
    </style>
  </defs>
  <g id="Camada_3">
    <g>
      <g>
        <path class="cls-2" d="M255.08,11.95h11.52c8.33,0,12.25,3.67,12.25,11.39v1.78c0,7.72-3.92,11.39-12.25,11.39h-6.56v18.32h-4.96V11.95ZM266.6,32.17c5.15,0,7.29-1.96,7.29-7.04v-1.78c0-5.02-2.14-7.05-7.29-7.05h-6.56v15.87h6.56Z"/>
        <path class="cls-2" d="M285.46,11.95h11.58c8.21,0,12.13,3.43,12.13,10.6v1.1c0,5.45-2.02,8.52-6.68,9.74v.06c4.66.98,6.68,4.04,6.68,10.11v5.39c0,2.08.12,4.23.8,5.88h-5.03c-.43-1.41-.67-2.76-.67-5.94v-5.64c0-5.33-2.21-7.35-8.03-7.35h-5.82v18.93h-4.96V11.95ZM296.12,31.55c5.64,0,8.09-2.2,8.09-7.1v-1.1c0-4.96-2.14-7.05-7.23-7.05h-6.56v15.26h5.7Z"/>
        <path class="cls-2" d="M316.52,43.5v-20.22c0-7.72,4.35-11.95,12.25-11.95s12.25,4.23,12.25,11.95v20.22c0,7.72-4.35,11.95-12.25,11.95s-12.25-4.23-12.25-11.95ZM336.13,43.81v-20.83c0-4.84-2.63-7.29-7.35-7.29s-7.29,2.45-7.29,7.29v20.83c0,4.84,2.57,7.29,7.29,7.29s7.35-2.45,7.35-7.29Z"/>
        <path class="cls-2" d="M348.19,43.62v-20.34c0-7.6,4.35-11.95,12.07-11.95s12.19,4.35,12.19,11.95v2.14h-4.66v-2.45c0-4.84-2.63-7.29-7.35-7.29s-7.29,2.45-7.29,7.29v20.83c0,4.84,2.57,7.29,7.29,7.29s7.35-2.45,7.35-7.29v-7.78h-6.8v-4.53h11.46v12.13c0,7.54-4.35,11.83-12.07,11.83s-12.19-4.29-12.19-11.83Z"/>
        <path class="cls-2" d="M380.05,11.95h11.58c8.21,0,12.13,3.43,12.13,10.6v1.1c0,5.45-2.02,8.52-6.68,9.74v.06c4.66.98,6.68,4.04,6.68,10.11v5.39c0,2.08.12,4.23.8,5.88h-5.03c-.43-1.41-.67-2.76-.67-5.94v-5.64c0-5.33-2.21-7.35-8.03-7.35h-5.82v18.93h-4.96V11.95ZM390.71,31.55c5.64,0,8.09-2.2,8.09-7.1v-1.1c0-4.96-2.14-7.05-7.23-7.05h-6.56v15.26h5.7Z"/>
        <path class="cls-2" d="M429.91,45.77h-13.48l-2.14,9.07h-4.72l10.42-42.89h6.68l10.54,42.89h-5.15l-2.15-9.07ZM428.81,41.42l-5.7-23.9-5.64,23.9h11.33Z"/>
        <path class="cls-2" d="M443.33,11.95h7.17l9.07,34.49,9.01-34.49h7.29v42.89h-4.84V18.69l-9.62,36.15h-3.98l-9.68-36.15v36.15h-4.41V11.95Z"/>
        <path class="cls-2" d="M502.33,45.77h-13.48l-2.15,9.07h-4.72l10.41-42.89h6.68l10.54,42.89h-5.15l-2.14-9.07ZM501.22,41.42l-5.7-23.9-5.64,23.9h11.33Z"/>
        <path class="cls-2" d="M527.38,11.95h12.07c8.15,0,12.13,3.86,12.13,11.76v19.36c0,7.9-3.98,11.76-12.13,11.76h-12.07V11.95ZM539.33,50.49c5.15,0,7.29-2.15,7.29-7.29v-19.61c0-5.15-2.14-7.29-7.29-7.29h-6.98v34.19h6.98Z"/>
        <path class="cls-2" d="M559.36,11.95h21.87v4.35h-16.91v14.64h13.85v4.29h-13.85v15.26h16.91v4.35h-21.87V11.95Z"/>
        <path class="cls-2" d="M599.36,11.95h21.14v4.35h-16.18v14.95h13.17v4.29h-13.17v19.3h-4.96V11.95Z"/>
        <path class="cls-2" d="M626.01,43.5v-20.22c0-7.72,4.35-11.95,12.25-11.95s12.25,4.23,12.25,11.95v20.22c0,7.72-4.35,11.95-12.25,11.95s-12.25-4.23-12.25-11.95ZM645.62,43.81v-20.83c0-4.84-2.63-7.29-7.35-7.29s-7.29,2.45-7.29,7.29v20.83c0,4.84,2.57,7.29,7.29,7.29s7.35-2.45,7.35-7.29Z"/>
        <path class="cls-2" d="M658.36,11.95h11.58c8.21,0,12.13,3.43,12.13,10.6v1.1c0,5.45-2.02,8.52-6.68,9.74v.06c4.66.98,6.68,4.04,6.68,10.11v5.39c0,2.08.12,4.23.8,5.88h-5.03c-.43-1.41-.67-2.76-.67-5.94v-5.64c0-5.33-2.21-7.35-8.03-7.35h-5.82v18.93h-4.96V11.95ZM669.02,31.55c5.64,0,8.09-2.2,8.09-7.1v-1.1c0-4.96-2.14-7.05-7.23-7.05h-6.56v15.26h5.7Z"/>
        <path class="cls-2" d="M689.97,11.95h7.17l9.07,34.49,9.01-34.49h7.29v42.89h-4.84V18.69l-9.62,36.15h-3.98l-9.68-36.15v36.15h-4.41V11.95Z"/>
        <path class="cls-2" d="M748.96,45.77h-13.48l-2.14,9.07h-4.72l10.42-42.89h6.68l10.54,42.89h-5.15l-2.15-9.07ZM747.86,41.42l-5.7-23.9-5.64,23.9h11.33Z"/>
        <path class="cls-2" d="M780.33,26.1v-3.12c0-4.84-2.69-7.35-7.17-7.35s-6.98,2.51-6.98,7.35v20.83c0,4.84,2.7,7.35,6.98,7.35s7.17-2.51,7.17-7.35v-4.35h4.72v4.17c0,7.11-3.86,11.4-10.85,11.76v2.51c3,0,4.66.92,4.66,3.25,0,3-2.39,3.8-5.94,3.8-4.11,0-5.82-1.35-5.82-3.74v-.49h2.88v.55c0,1.1,1.16,1.66,2.82,1.66,1.96,0,3.12-.55,3.12-1.77,0-1.41-1.29-1.72-3-1.72h-.8v-3.98c-6.86-.37-10.91-4.66-10.91-11.83v-20.46c0-7.48,4.41-11.82,11.82-11.82s12.01,4.35,12.01,11.82v2.94h-4.72Z"/>
        <path class="cls-2" d="M809.92,45.77h-13.48l-2.14,9.07h-4.72l10.42-42.89h6.68l10.54,42.89h-5.15l-2.15-9.07ZM796.75,7.29l-2.69-1.47c1.65-3.8,3.49-5.45,5.82-5.45,1.77,0,3.06.86,4.1,1.66.86.61,1.66,1.16,2.51,1.16,1.1,0,2.02-.73,3.12-3.19l2.76,1.47c-1.72,3.74-3.61,5.39-5.88,5.39-1.84,0-3-.74-4.11-1.6-.86-.61-1.65-1.16-2.51-1.16-1.23,0-2.15.86-3.13,3.19ZM808.82,41.42l-5.7-23.9-5.64,23.9h11.33Z"/>
        <path class="cls-2" d="M822.17,43.5v-20.22c0-7.72,4.35-11.95,12.25-11.95s12.25,4.23,12.25,11.95v20.22c0,7.72-4.35,11.95-12.25,11.95s-12.25-4.23-12.25-11.95ZM841.78,43.81v-20.83c0-4.84-2.63-7.29-7.35-7.29s-7.29,2.45-7.29,7.29v20.83c0,4.84,2.58,7.29,7.29,7.29s7.35-2.45,7.35-7.29Z"/>
        <path class="cls-2" d="M253.23,77.55h26.05c17.69,0,26.37,9.81,26.37,27.82v11.1c0,18.01-8.68,27.82-26.37,27.82h-8.36v45.83h-17.69v-112.57ZM279.29,128.21c5.63,0,8.68-2.58,8.68-10.61v-13.35c0-8.04-3.06-10.61-8.68-10.61h-8.36v34.58h8.36Z"/>
        <path class="cls-2" d="M345.06,168.09h-20.43l-3.05,22.03h-16.4l18.33-112.57h23.96l18.33,112.57h-17.69l-3.06-22.03ZM342.81,152.81l-8.04-56.77-7.88,56.77h15.92Z"/>
        <path class="cls-2" d="M373.52,163.42v-85.88h17.69v87.16c0,8.04,3.38,10.94,9,10.94s9.01-2.9,9.01-10.94v-87.16h17.05v85.88c0,18.01-9.01,28.31-26.38,28.31s-26.37-10.29-26.37-28.31Z"/>
        <path class="cls-2" d="M439.77,77.55h17.69v96.49h29.11v16.08h-46.8v-112.57Z"/>
        <path class="cls-2" d="M511.65,163.42v-6.43h16.73v7.72c0,8.04,3.54,10.94,9.17,10.94s9.33-2.9,9.33-11.26c0-9.33-3.86-15.12-15.44-25.25-14.8-13.02-19.78-22.35-19.78-35.22,0-17.69,9.17-27.98,26.38-27.98s25.73,10.29,25.73,28.3v4.67h-16.72v-5.79c0-8.04-3.22-11.1-8.85-11.1s-9.01,3.06-9.01,10.77c0,8.2,4.02,13.99,15.6,24.12,14.8,13.02,19.62,22.19,19.62,36.18,0,18.33-9.33,28.62-26.69,28.62s-26.05-10.29-26.05-28.31Z"/>
        <path class="cls-2" d="M574.69,77.55h17.69v112.57h-17.69v-112.57Z"/>
        <path class="cls-2" d="M605.88,77.55h21.87l17.85,67.38v-67.38h15.76v112.57h-17.85l-21.87-82.18v82.18h-15.76v-112.57Z"/>
        <path class="cls-2" d="M673.58,163.42v-59.18c0-18.01,9.01-28.3,26.38-28.3s26.37,10.29,26.37,28.3v9.65h-16.72v-10.78c0-8.04-3.54-11.1-9.17-11.1s-9.17,3.06-9.17,11.1v61.59c0,8.04,3.54,10.94,9.17,10.94s9.17-2.9,9.17-10.94v-22.03h-8.85v-16.08h25.57v36.83c0,18.01-9,28.31-26.37,28.31s-26.38-10.29-26.38-28.31Z"/>
        <path class="cls-2" d="M738.23,77.55h48.25v16.08h-30.56v29.75h24.28v16.08h-24.28v34.57h30.56v16.08h-48.25v-112.57Z"/>
        <path class="cls-2" d="M796.28,77.55h26.21c18.33,0,26.21,8.52,26.21,25.89v6.91c0,11.58-3.7,18.98-11.58,22.2v.32c8.84,2.73,11.74,11.1,11.74,23.8v19.78c0,5.47.16,9.49,1.93,13.67h-18.01c-.96-2.9-1.61-4.66-1.61-13.83v-20.59c0-10.45-3.06-13.83-11.1-13.83h-6.11v48.24h-17.69v-112.57ZM820.4,125.79c6.59,0,10.61-2.9,10.61-11.9v-8.68c0-8.04-2.73-11.58-9.01-11.58h-8.04v32.17h6.43Z"/>
        <path class="cls-2" d="M264.3,236.26h-7.3l-1.16,4.91h-2.56l5.64-23.23h3.62l5.71,23.23h-2.79l-1.16-4.91ZM263.7,233.9l-3.09-12.94-3.05,12.94h6.14Z"/>
        <path class="cls-2" d="M271.57,235.1v-11.02c0-4.11,2.36-6.47,6.54-6.47s6.6,2.36,6.6,6.47v1.16h-2.52v-1.33c0-2.62-1.43-3.95-3.98-3.95s-3.95,1.33-3.95,3.95v11.28c0,2.62,1.39,3.95,3.95,3.95s3.98-1.33,3.98-3.95v-4.22h-3.68v-2.46h6.2v6.57c0,4.08-2.36,6.4-6.54,6.4s-6.61-2.32-6.61-6.4Z"/>
        <path class="cls-2" d="M289.49,217.95h11.85v2.35h-9.16v7.93h7.5v2.32h-7.5v8.26h9.16v2.36h-11.85v-23.23Z"/>
        <path class="cls-2" d="M305.51,217.95h3.52l7.57,17.69v-17.69h2.49v23.23h-2.82l-8.3-19.51v19.51h-2.46v-23.23Z"/>
        <path class="cls-2" d="M328.48,220.3h-5.41v-2.35h13.51v2.35h-5.41v20.87h-2.69v-20.87Z"/>
        <path class="cls-2" d="M340.55,217.95h11.85v2.35h-9.16v7.93h7.5v2.32h-7.5v8.26h9.16v2.36h-11.85v-23.23Z"/>
        <path class="cls-2" d="M355.82,235.53v-.96h2.52v.93c0,2.16,1.43,3.71,3.88,3.71s3.88-1.49,3.88-3.71c0-2.42-.99-3.39-4.75-5.08-4.35-1.99-5.44-3.85-5.44-6.84,0-3.48,2.32-5.97,6.4-5.97s6.31,2.42,6.31,6.01v.56h-2.52v-.53c0-2.19-1.36-3.72-3.78-3.72s-3.72,1.49-3.72,3.58c0,2.26,1.03,3.19,4.81,4.91,4.28,1.99,5.34,3.85,5.34,7,0,3.55-2.32,6.07-6.54,6.07s-6.4-2.42-6.4-5.97Z"/>
        <path class="cls-2" d="M380.14,217.95h6.54c4.41,0,6.57,2.09,6.57,6.37v10.48c0,4.28-2.16,6.37-6.57,6.37h-6.54v-23.23ZM386.61,238.82c2.79,0,3.95-1.16,3.95-3.95v-10.62c0-2.79-1.16-3.95-3.95-3.95h-3.78v18.52h3.78Z"/>
        <path class="cls-2" d="M398.13,217.95h11.85v2.35h-9.16v7.93h7.5v2.32h-7.5v8.26h9.16v2.36h-11.85v-23.23Z"/>
        <path class="cls-2" d="M421.12,217.95h11.85v2.35h-9.16v7.93h7.5v2.32h-7.5v8.26h9.16v2.36h-11.85v-23.23Z"/>
        <path class="cls-2" d="M436.82,235.1v-11.08c0-4.05,2.39-6.41,6.4-6.41s6.5,2.36,6.5,6.41v1.59h-2.56v-1.69c0-2.62-1.46-3.98-3.88-3.98s-3.78,1.36-3.78,3.98v11.28c0,2.62,1.46,3.98,3.78,3.98s3.88-1.36,3.88-3.98v-2.36h2.56v2.26c0,4.05-2.32,6.4-6.5,6.4s-6.4-2.36-6.4-6.4Z"/>
        <path class="cls-2" d="M453.97,235.03v-10.95c0-4.18,2.36-6.47,6.64-6.47s6.64,2.29,6.64,6.47v10.95c0,4.18-2.36,6.47-6.64,6.47s-6.64-2.29-6.64-6.47ZM464.59,235.2v-11.28c0-2.62-1.43-3.95-3.98-3.95s-3.95,1.33-3.95,3.95v11.28c0,2.62,1.39,3.95,3.95,3.95s3.98-1.33,3.98-3.95Z"/>
        <path class="cls-2" d="M472.16,217.95h3.52l7.57,17.69v-17.69h2.49v23.23h-2.82l-8.3-19.51v19.51h-2.46v-23.23Z"/>
        <path class="cls-2" d="M490.64,235.03v-10.95c0-4.18,2.36-6.47,6.64-6.47s6.64,2.29,6.64,6.47v10.95c0,4.18-2.36,6.47-6.64,6.47s-6.64-2.29-6.64-6.47ZM501.26,235.2v-11.28c0-2.62-1.43-3.95-3.98-3.95s-3.95,1.33-3.95,3.95v11.28c0,2.62,1.39,3.95,3.95,3.95s3.98-1.33,3.98-3.95Z"/>
        <path class="cls-2" d="M508.82,217.95h3.88l4.91,18.68,4.88-18.68h3.95v23.23h-2.62v-19.58l-5.21,19.58h-2.16l-5.24-19.58v19.58h-2.39v-23.23Z"/>
        <path class="cls-2" d="M531.69,217.95h2.69v23.23h-2.69v-23.23Z"/>
        <path class="cls-2" d="M549.37,236.26h-7.3l-1.16,4.91h-2.56l5.64-23.23h3.62l5.71,23.23h-2.79l-1.16-4.91ZM548.78,233.9l-3.09-12.94-3.05,12.94h6.14Z"/>
        <path class="cls-2" d="M564.27,217.95h6.24c4.51,0,6.64,1.99,6.64,6.17v.96c0,4.18-2.12,6.17-6.64,6.17h-3.55v9.92h-2.69v-23.23ZM570.51,228.89c2.79,0,3.95-1.06,3.95-3.81v-.96c0-2.72-1.16-3.82-3.95-3.82h-3.55v8.59h3.55Z"/>
        <path class="cls-2" d="M581.06,235.03v-10.95c0-4.18,2.36-6.47,6.64-6.47s6.64,2.29,6.64,6.47v10.95c0,4.18-2.36,6.47-6.64,6.47s-6.64-2.29-6.64-6.47ZM591.68,235.2v-11.28c0-2.62-1.43-3.95-3.98-3.95s-3.95,1.33-3.95,3.95v11.28c0,2.62,1.39,3.95,3.95,3.95s3.98-1.33,3.98-3.95Z"/>
        <path class="cls-2" d="M599.25,217.95h6.24c4.51,0,6.64,1.99,6.64,6.17v.96c0,4.18-2.12,6.17-6.64,6.17h-3.55v9.92h-2.69v-23.23ZM605.49,228.89c2.79,0,3.95-1.06,3.95-3.81v-.96c0-2.72-1.16-3.82-3.95-3.82h-3.55v8.59h3.55Z"/>
        <path class="cls-2" d="M616.2,235.03v-17.09h2.69v17.25c0,2.65,1.36,3.95,3.91,3.95s3.88-1.3,3.88-3.95v-17.25h2.59v17.09c0,4.12-2.29,6.47-6.54,6.47s-6.54-2.39-6.54-6.47Z"/>
        <path class="cls-2" d="M634.35,217.95h2.69v20.87h8.76v2.36h-11.45v-23.23Z"/>
        <path class="cls-2" d="M659.64,236.26h-7.3l-1.16,4.91h-2.56l5.64-23.23h3.62l5.71,23.23h-2.79l-1.16-4.91ZM659.04,233.9l-3.09-12.94-3.05,12.94h6.14Z"/>
        <path class="cls-2" d="M667.57,217.95h6.27c4.45,0,6.57,1.85,6.57,5.74v.6c0,2.95-1.09,4.61-3.62,5.27v.03c2.52.53,3.62,2.19,3.62,5.47v2.92c0,1.13.07,2.29.43,3.19h-2.72c-.23-.76-.37-1.49-.37-3.22v-3.05c0-2.89-1.19-3.98-4.35-3.98h-3.15v10.26h-2.69v-23.23ZM673.35,228.56c3.05,0,4.38-1.2,4.38-3.85v-.6c0-2.69-1.16-3.82-3.92-3.82h-3.55v8.27h3.09Z"/>
        <path class="cls-2" d="M692.33,217.95h11.85v2.35h-9.16v7.93h7.5v2.32h-7.5v8.26h9.16v2.36h-11.85v-23.23Z"/>
        <path class="cls-2" d="M714.49,235.53v-.96h2.52v.93c0,2.16,1.43,3.71,3.88,3.71s3.88-1.49,3.88-3.71c0-2.42-.99-3.39-4.74-5.08-4.35-1.99-5.44-3.85-5.44-6.84,0-3.48,2.32-5.97,6.41-5.97s6.3,2.42,6.3,6.01v.56h-2.52v-.53c0-2.19-1.36-3.72-3.78-3.72s-3.72,1.49-3.72,3.58c0,2.26,1.03,3.19,4.81,4.91,4.28,1.99,5.34,3.85,5.34,7,0,3.55-2.32,6.07-6.54,6.07s-6.4-2.42-6.4-5.97Z"/>
        <path class="cls-2" d="M731.51,235.03v-10.95c0-4.18,2.36-6.47,6.64-6.47s6.64,2.29,6.64,6.47v10.95c0,4.18-2.36,6.47-6.64,6.47s-6.64-2.29-6.64-6.47ZM742.13,235.2v-11.28c0-2.62-1.43-3.95-3.98-3.95s-3.95,1.33-3.95,3.95v11.28c0,2.62,1.39,3.95,3.95,3.95s3.98-1.33,3.98-3.95Z"/>
        <path class="cls-2" d="M749.7,217.95h2.69v20.87h8.76v2.36h-11.45v-23.23Z"/>
        <path class="cls-2" d="M765.13,217.95h2.69v23.23h-2.69v-23.23Z"/>
        <path class="cls-2" d="M773.06,217.95h6.54c4.41,0,6.57,2.09,6.57,6.37v10.48c0,4.28-2.16,6.37-6.57,6.37h-6.54v-23.23ZM779.53,238.82c2.79,0,3.95-1.16,3.95-3.95v-10.62c0-2.79-1.16-3.95-3.95-3.95h-3.78v18.52h3.78Z"/>
        <path class="cls-2" d="M800.5,236.26h-7.3l-1.16,4.91h-2.56l5.64-23.23h3.62l5.71,23.23h-2.79l-1.16-4.91ZM799.9,233.9l-3.09-12.94-3.05,12.94h6.14ZM797.35,215.32h-2.36l2.99-3.82h3.15l-3.78,3.82Z"/>
        <path class="cls-2" d="M808.43,217.95h6.27c4.45,0,6.57,1.85,6.57,5.74v.6c0,2.95-1.1,4.61-3.62,5.27v.03c2.52.53,3.62,2.19,3.62,5.47v2.92c0,1.13.06,2.29.43,3.19h-2.72c-.23-.76-.36-1.49-.36-3.22v-3.05c0-2.89-1.19-3.98-4.35-3.98h-3.15v10.26h-2.69v-23.23ZM814.21,228.56c3.05,0,4.38-1.2,4.38-3.85v-.6c0-2.69-1.16-3.82-3.91-3.82h-3.55v8.27h3.09Z"/>
        <path class="cls-2" d="M826.22,217.95h2.69v23.23h-2.69v-23.23Z"/>
        <path class="cls-2" d="M843.91,236.26h-7.3l-1.16,4.91h-2.56l5.64-23.23h3.62l5.71,23.23h-2.79l-1.16-4.91ZM843.31,233.9l-3.09-12.94-3.05,12.94h6.14Z"/>
      </g>
      <g>
        <path class="cls-3" d="M174.38,137.16c3.84,5.81,6.72,12.2,8.69,18.87.51,1.6,1.4,4.27,3.1,5.12,1.42.71,3.32-.22,4.53-.93,3.02-1.78,5.48-5.09,7.46-7.9,4.02-5.72,6.7-12.34,7.77-19.25,1.9-12.24-1.42-24.94-9.03-34.71-3.63-4.66-8.24-8.62-13.45-11.41-3.89-2.08-11.69-6.09-16.01-3.32-2.44,1.57-2.18,4.67-2.11,7.19.09,3.25,0,6.5-.28,9.74-.59,6.98-3.4,14.12-1.35,21.08,1.78,6.04,7.26,10.38,10.67,15.53Z"/>
        <path class="cls-5" d="M153.12,136.49c-2.42,3.9-5.18,7.61-8.21,11.06-2.92,3.33-7.12,6.37-8.53,10.73-1.43,4.42,2.38,6.66,5.77,8.48,8.62,4.63,18.56,5.87,28.12,3.94,9.22-2.17,7.82-12.93,5.34-19.75-1.59-4.38-3.66-8.56-6.15-12.5-1.27-2-2.64-3.93-4.11-5.79-1.05-1.33-2.52-3.57-4.24-4.09-1.45-.44-3.1.99-4.02,1.93-1.69,1.71-2.72,3.95-3.98,5.98Z"/>
        <path class="cls-4" d="M155.27,53.85c2.89,5.3,4.57,11.05,7.23,16.42,1.3,2.62,2.94,5.29,5.27,7.11,2.19,1.72,4.75,1.9,7.36,2.61,16.37,4.48,29.61,16.81,34.92,32.39V18.75c0-4.22-3.42-7.65-7.65-7.65h-107.33c13.94,2.48,27.27,8.35,38.45,17.14,8.86,6.97,16.35,15.7,21.75,25.6Z"/>
        <path class="cls-3" d="M45.44,179.58c-.47-5.72-2.49-10.8-6.54-14.93-4.38-4.47-10-7.59-14.62-11.84-4.34-3.99-8.26-8.44-11.68-13.24-5.83-8.2-10.1-17.49-12.6-27.23v122.08c0,4.22,3.42,7.65,7.65,7.65h95.58c-8.38-1.59-16.51-4.62-23.88-9.02-19.08-11.37-31.84-31.34-33.91-53.47Z"/>
        <path class="cls-6" d="M109.17,109.46c-6.16,0-13.17,2.64-18.72,5.12-5.71,2.55-11.04,5.94-15.81,9.99-9.61,8.17-16.61,18.92-20.41,30.93-.87,3.52-.36,7.09,1.91,9.99,3,3.83,7.89,4.55,12.42,5.24,9.12,1.39,18.52,1.12,27.55-.79,6.97-1.48,14.57-3.75,20.68-7.52,6.47-4,3.34-10.48.79-15.92-3.21-6.83-4.77-14.3-4.52-21.85.12-3.69,2.56-15.19-3.9-15.19Z"/>
        <path class="cls-7" d="M65.23,11.1H7.65c-4.22,0-7.65,3.42-7.65,7.65v53.01c2.73-10.76,7.61-20.96,14.48-29.86,12.48-16.18,30.72-27.14,50.76-30.79Z"/>
        <path class="cls-5" d="M82.56,112.57c7.52-3.82,15.3-5.76,23.57-7.12,7.16-1.18,12.45-3.89,17.41-9.21,5.63-6.04,11.43-11.07,19.15-14.3,3.7-1.55,7.73-1.86,10.23-5.3,2.28-3.14,2.9-7.34,1.86-11.06-1.99-7.11-6.2-14.09-10.48-20.03-18.29-25.36-50.46-37.17-80.8-29.44-27.67,7.05-49.94,29.21-57.28,56.79-8.32,31.27,3.64,65.22,29.72,84.35,2.87,1.78,6.82,4.58,9.74,1.46,2.63-2.79,3.18-7.64,4.6-11.1,3.05-7.43,7.43-14.29,12.84-20.22,5.52-6.06,12.14-11.1,19.45-14.81Z"/>
        <path class="cls-8" d="M175.77,195.68c1.75-4.9,2.91-10.01,3.47-15.18.17-1.54.64-4.93-.93-6.07-1.4-1.02-4.9.26-6.42.5-11.63,1.84-23.73-.53-33.91-6.42-3.07-1.78-5.73-4.23-9.49-4.18-3.54.04-6.66,1.58-9.79,3.07-5.57,2.66-11.4,4.73-17.42,6.09-12.3,2.79-25.05,2.65-37.36-.01-6.49-1.03-13.04,2.09-12.15,9.41.68,5.58,2.07,11.06,4.14,16.29,4.17,10.56,11.19,20.01,20.1,27.05,16.5,13.04,38.77,16.53,58.64,9.87,18.99-6.36,34.39-21.56,41.11-40.42Z"/>
        <path class="cls-4" d="M127.37,152.27c1.38.51,3.32-.42,4.5-1.05,4.06-2.13,7.15-6.03,9.97-9.55,2.7-3.37,5.27-7.01,7.26-10.85,1.49-2.87,2.79-6.39,1.78-9.63-1.06-3.4-4.77-4.85-7.71-6.26-3.76-1.81-8.19-3.79-12.37-4.25-7.15-.79-10.73,6-11.4,12.08-.97,8.78.78,17.76,4.82,25.59.66,1.22,1.73,3.39,3.15,3.92Z"/>
        <path class="cls-6" d="M198.2,161.71c-3.94,3.87-8.45,6.95-10.82,12.14-2.43,5.31-2.18,11.46-3.53,17.08-5.1,21.31-20.65,39.15-40.89,47.4-4.09,1.67-8.31,2.89-12.6,3.73h72.05c4.22,0,7.65-3.42,7.65-7.65v-91.69c-2.39,7.11-6.41,13.64-11.85,18.98Z"/>
        <path class="cls-7" d="M128.56,99.9c-1.37,1.83-1.92,4.28.08,5.89,1.26,1.02,2.94,1.36,4.46,1.78,2.08.57,4.14,1.22,6.17,1.96,3.96,1.46,7.55,3.48,11.33,5.29,2.19,1.04,4.09-.05,5.29-2.03,1.95-3.21,2.32-7.35,2.78-11,.55-4.42.71-8.86.52-13.3-.07-1.62-.21-3.54-1.19-4.92-.56-.79-.65-.67-1.59-.62-3.75.21-7.82,1.9-11.17,3.49-6.44,3.05-12.41,7.75-16.69,13.47Z"/>
        <path class="cls-1" d="M183.85,190.93c1.35-5.62,1.1-11.77,3.53-17.08,2.37-5.19,6.88-8.27,10.82-12.14,5.44-5.34,9.46-11.87,11.85-18.98v-30.34c-5.32-15.59-18.56-27.91-34.92-32.39-2.61-.71-5.16-.89-7.36-2.61-2.33-1.83-3.97-4.5-5.27-7.11-2.66-5.37-4.34-11.12-7.23-16.42-5.4-9.9-12.89-18.63-21.75-25.6-11.18-8.79-24.51-14.66-38.45-17.14h-29.84c-20.04,3.65-38.27,14.61-50.76,30.79C7.61,50.79,2.73,61,0,71.76v40.58c2.5,9.74,6.78,19.03,12.6,27.23,3.41,4.8,7.34,9.25,11.68,13.24,4.62,4.25,10.24,7.37,14.62,11.84,4.05,4.14,6.08,9.21,6.54,14.93,2.06,22.13,14.83,42.1,33.91,53.47,7.38,4.4,15.5,7.42,23.88,9.02h27.12c4.29-.83,8.51-2.06,12.6-3.73,20.25-8.26,35.8-26.09,40.89-47.4ZM165.07,100.56c.28-3.24.37-6.49.28-9.74-.07-2.51-.33-5.62,2.11-7.19,4.32-2.77,12.12,1.23,16.01,3.32,5.21,2.79,9.82,6.75,13.45,11.41,7.61,9.76,10.93,22.47,9.03,34.71-1.07,6.91-3.76,13.53-7.77,19.25-1.98,2.82-4.44,6.12-7.46,7.9-1.21.71-3.12,1.64-4.53.93-1.7-.85-2.59-3.53-3.1-5.12-1.98-6.67-4.85-13.06-8.69-18.87-3.4-5.15-8.89-9.49-10.67-15.53-2.05-6.96.76-14.1,1.35-21.08ZM161.12,128.59c1.72.52,3.18,2.76,4.24,4.09,1.47,1.85,2.84,3.79,4.11,5.79,2.49,3.93,4.56,8.12,6.15,12.5,2.48,6.81,3.88,17.58-5.34,19.75-9.56,1.93-19.5.68-28.12-3.94-3.39-1.82-7.19-4.06-5.77-8.48,1.41-4.36,5.6-7.4,8.53-10.73,3.03-3.45,5.79-7.16,8.21-11.06,1.25-2.02,2.29-4.26,3.98-5.98.93-.94,2.57-2.37,4.02-1.93ZM117.58,146.5c2.56,5.44,5.68,11.93-.79,15.92-6.11,3.77-13.71,6.05-20.68,7.52-9.03,1.91-18.42,2.18-27.55.79-4.53-.69-9.42-1.41-12.42-5.24-2.27-2.9-2.78-6.47-1.91-9.99,3.79-12.01,10.79-22.76,20.41-30.93,4.76-4.05,10.1-7.44,15.81-9.99,5.55-2.48,12.56-5.12,18.72-5.12,6.46,0,4.02,11.5,3.9,15.19-.25,7.55,1.31,15.01,4.52,21.85ZM119.4,122.76c.67-6.08,4.25-12.87,11.4-12.08,4.19.46,8.61,2.45,12.37,4.25,2.94,1.41,6.64,2.86,7.71,6.26,1.01,3.24-.29,6.76-1.78,9.63-1.99,3.84-4.56,7.48-7.26,10.85-2.82,3.52-5.91,7.42-9.97,9.55-1.19.62-3.13,1.56-4.5,1.05-1.42-.53-2.49-2.7-3.15-3.92-4.04-7.84-5.79-16.81-4.82-25.59ZM156.41,82.94c.94-.05,1.03-.17,1.59.62.98,1.37,1.12,3.29,1.19,4.92.19,4.44.03,8.89-.52,13.3-.45,3.65-.83,7.79-2.78,11-1.2,1.99-3.1,3.08-5.29,2.03-3.79-1.81-7.37-3.83-11.33-5.29-2.02-.75-4.09-1.39-6.17-1.96-1.52-.42-3.2-.76-4.46-1.78-2-1.61-1.45-4.06-.08-5.89,4.28-5.72,10.24-10.43,16.69-13.47,3.35-1.58,7.43-3.28,11.17-3.49ZM45.67,158.71c-2.93,3.11-6.87.31-9.74-1.46C9.84,138.12-2.11,104.17,6.21,72.9c7.34-27.58,29.6-49.74,57.28-56.79,30.34-7.73,62.51,4.08,80.8,29.44,4.29,5.95,8.49,12.92,10.48,20.03,1.04,3.71.42,7.92-1.86,11.06-2.5,3.45-6.53,3.76-10.23,5.3-7.72,3.23-13.52,8.25-19.15,14.3-4.96,5.32-10.25,8.03-17.41,9.21-8.27,1.36-16.05,3.3-23.57,7.12-7.31,3.71-13.92,8.76-19.45,14.81-5.41,5.93-9.8,12.79-12.84,20.22-1.42,3.46-1.97,8.31-4.6,11.1ZM76.02,226.23c-8.91-7.04-15.93-16.49-20.1-27.05-2.06-5.22-3.46-10.71-4.14-16.29-.89-7.32,5.66-10.44,12.15-9.41,12.31,2.66,25.06,2.8,37.36.01,6.02-1.36,11.85-3.42,17.42-6.09,3.12-1.5,6.24-3.03,9.79-3.07,3.76-.04,6.42,2.41,9.49,4.18,10.18,5.89,22.28,8.26,33.91,6.42,1.52-.24,5.01-1.52,6.42-.5,1.56,1.14,1.09,4.53.93,6.07-.56,5.18-1.72,10.28-3.47,15.18-6.72,18.85-22.12,34.06-41.11,40.42-19.87,6.66-42.14,3.17-58.64-9.87Z"/>
      </g>
    </g>
  </g>
</svg>